<svg xmlns="http://www.w3.org/2000/svg" xmlns:xlink="http://www.w3.org/1999/xlink" width="1000" zoomAndPan="magnify" viewBox="0 0 750 74.999997" height="100" preserveAspectRatio="xMidYMid meet" version="1.0"><defs><g/><clipPath id="bd5c614a0a"><path d="M 569.421875 40.507812 L 594.140625 40.507812 L 594.140625 65.226562 L 569.421875 65.226562 Z M 569.421875 40.507812 " clip-rule="nonzero"/></clipPath><clipPath id="c534913559"><path d="M 587.46875 48.71875 L 589.410156 48.71875 L 589.410156 50.660156 L 587.46875 50.660156 Z M 587.46875 48.71875 " clip-rule="nonzero"/></clipPath><clipPath id="5ddca144df"><path d="M 588.4375 48.71875 C 587.902344 48.71875 587.46875 49.152344 587.46875 49.691406 C 587.46875 50.226562 587.902344 50.660156 588.4375 50.660156 C 588.972656 50.660156 589.410156 50.226562 589.410156 49.691406 C 589.410156 49.152344 588.972656 48.71875 588.4375 48.71875 Z M 588.4375 48.71875 " clip-rule="nonzero"/></clipPath><clipPath id="f9b27854d9"><path d="M 587.003906 50.535156 L 588.964844 50.535156 L 588.964844 52.496094 L 587.003906 52.496094 Z M 587.003906 50.535156 " clip-rule="nonzero"/></clipPath><clipPath id="22a8ee98d9"><path d="M 587.984375 50.535156 C 587.445312 50.535156 587.003906 50.972656 587.003906 51.515625 C 587.003906 52.054688 587.445312 52.496094 587.984375 52.496094 C 588.527344 52.496094 588.964844 52.054688 588.964844 51.515625 C 588.964844 50.972656 588.527344 50.535156 587.984375 50.535156 Z M 587.984375 50.535156 " clip-rule="nonzero"/></clipPath><clipPath id="4e341d6894"><path d="M 570.664062 41.6875 L 593 41.6875 L 593 64.1875 L 570.664062 64.1875 Z M 570.664062 41.6875 " clip-rule="nonzero"/></clipPath><clipPath id="00285ffefe"><path d="M 569.421875 4.832031 L 583.679688 4.832031 L 583.679688 27.488281 L 569.421875 27.488281 Z M 569.421875 4.832031 " clip-rule="nonzero"/></clipPath><clipPath id="d89e47f3ad"><path d="M 575.359375 21.914062 L 577.746094 21.914062 L 577.746094 24.386719 L 575.359375 24.386719 Z M 575.359375 21.914062 " clip-rule="nonzero"/></clipPath><clipPath id="82ab480dca"><path d="M 576.550781 21.914062 C 577.210938 21.914062 577.746094 22.449219 577.746094 23.109375 L 577.746094 23.1875 C 577.746094 23.847656 577.210938 24.382812 576.550781 24.382812 C 575.890625 24.382812 575.359375 23.847656 575.359375 23.1875 L 575.359375 23.109375 C 575.359375 22.449219 575.890625 21.914062 576.550781 21.914062 Z M 576.550781 21.914062 " clip-rule="nonzero"/></clipPath></defs><g fill="#000000" fill-opacity="1"><g transform="translate(374.999984, 41.414829)"><g><path d="M 11.46875 -15.359375 C 11.695312 -15.359375 11.953125 -15.394531 12.234375 -15.46875 C 12.515625 -15.550781 12.75 -15.703125 12.9375 -15.921875 L 13.546875 -10.8125 L 13.046875 -10.75 C 12.890625 -11.15625 12.660156 -11.550781 12.359375 -11.9375 C 12.066406 -12.332031 11.722656 -12.675781 11.328125 -12.96875 C 10.941406 -13.269531 10.515625 -13.507812 10.046875 -13.6875 C 9.585938 -13.875 9.113281 -13.96875 8.625 -13.96875 C 8.34375 -13.96875 8.050781 -13.929688 7.75 -13.859375 C 7.445312 -13.785156 7.164062 -13.675781 6.90625 -13.53125 C 6.65625 -13.382812 6.445312 -13.191406 6.28125 -12.953125 C 6.125 -12.722656 6.046875 -12.441406 6.046875 -12.109375 C 6.046875 -11.890625 6.082031 -11.695312 6.15625 -11.53125 C 6.238281 -11.363281 6.375 -11.210938 6.5625 -11.078125 C 6.75 -10.953125 7 -10.828125 7.3125 -10.703125 C 7.625 -10.585938 8.015625 -10.460938 8.484375 -10.328125 L 11.234375 -9.5 C 11.785156 -9.320312 12.300781 -9.097656 12.78125 -8.828125 C 13.257812 -8.566406 13.675781 -8.253906 14.03125 -7.890625 C 14.382812 -7.523438 14.65625 -7.117188 14.84375 -6.671875 C 15.039062 -6.234375 15.140625 -5.773438 15.140625 -5.296875 C 15.140625 -3.441406 14.488281 -2.03125 13.1875 -1.0625 C 11.882812 -0.101562 9.941406 0.375 7.359375 0.375 C 6.703125 0.375 6.085938 0.332031 5.515625 0.25 C 4.941406 0.175781 4.457031 0.101562 4.0625 0.03125 C 3.800781 -0.0195312 3.53125 -0.0703125 3.25 -0.125 C 2.976562 -0.1875 2.734375 -0.21875 2.515625 -0.21875 C 2.296875 -0.21875 2.082031 -0.175781 1.875 -0.09375 C 1.675781 -0.0078125 1.46875 0.140625 1.25 0.359375 L 0.734375 -6.203125 L 1.25 -6.28125 C 1.351562 -5.59375 1.566406 -4.957031 1.890625 -4.375 C 2.210938 -3.789062 2.613281 -3.285156 3.09375 -2.859375 C 3.582031 -2.441406 4.132812 -2.109375 4.75 -1.859375 C 5.375 -1.617188 6.039062 -1.5 6.75 -1.5 C 7.40625 -1.5 7.945312 -1.5625 8.375 -1.6875 C 8.8125 -1.8125 9.160156 -1.976562 9.421875 -2.1875 C 9.691406 -2.40625 9.878906 -2.65625 9.984375 -2.9375 C 10.097656 -3.21875 10.15625 -3.515625 10.15625 -3.828125 C 10.15625 -3.972656 10.128906 -4.117188 10.078125 -4.265625 C 10.035156 -4.410156 9.9375 -4.566406 9.78125 -4.734375 C 9.625 -4.898438 9.390625 -5.066406 9.078125 -5.234375 C 8.765625 -5.410156 8.34375 -5.585938 7.8125 -5.765625 L 5.296875 -6.578125 C 4.535156 -6.816406 3.894531 -7.066406 3.375 -7.328125 C 2.851562 -7.597656 2.429688 -7.9375 2.109375 -8.34375 C 1.847656 -8.675781 1.640625 -9.035156 1.484375 -9.421875 C 1.328125 -9.816406 1.25 -10.242188 1.25 -10.703125 C 1.25 -11.484375 1.378906 -12.1875 1.640625 -12.8125 C 1.910156 -13.4375 2.320312 -13.976562 2.875 -14.4375 C 3.382812 -14.863281 4.007812 -15.203125 4.75 -15.453125 C 5.488281 -15.710938 6.304688 -15.84375 7.203125 -15.84375 C 8.015625 -15.84375 8.738281 -15.796875 9.375 -15.703125 C 10.007812 -15.609375 10.5 -15.523438 10.84375 -15.453125 C 11.132812 -15.390625 11.34375 -15.359375 11.46875 -15.359375 Z M 11.46875 -15.359375 "/></g></g></g><g fill="#000000" fill-opacity="1"><g transform="translate(390.514271, 41.414829)"><g><path d="M 5.921875 -11.78125 L 5.921875 -3.921875 C 5.921875 -3.535156 5.957031 -3.226562 6.03125 -3 C 6.113281 -2.769531 6.210938 -2.597656 6.328125 -2.484375 C 6.453125 -2.378906 6.578125 -2.3125 6.703125 -2.28125 C 6.828125 -2.25 6.945312 -2.234375 7.0625 -2.234375 C 7.375 -2.234375 7.6875 -2.332031 8 -2.53125 C 8.320312 -2.726562 8.59375 -3.0625 8.8125 -3.53125 C 8.988281 -3.882812 9.125 -4.328125 9.21875 -4.859375 C 9.3125 -5.398438 9.359375 -6.082031 9.359375 -6.90625 L 9.359375 -8.796875 C 9.359375 -9.179688 9.320312 -9.507812 9.25 -9.78125 C 9.175781 -10.050781 9.082031 -10.265625 8.96875 -10.421875 C 8.851562 -10.578125 8.707031 -10.6875 8.53125 -10.75 C 8.363281 -10.8125 8.175781 -10.847656 7.96875 -10.859375 L 7.96875 -11.453125 L 13.75 -11.78125 L 13.75 -2.40625 C 13.75 -1.238281 14.175781 -0.632812 15.03125 -0.59375 L 15.03125 0 L 9.640625 0 C 9.535156 -0.3125 9.460938 -0.628906 9.421875 -0.953125 C 9.390625 -1.285156 9.367188 -1.671875 9.359375 -2.109375 C 8.734375 -1.410156 8 -0.832031 7.15625 -0.375 C 6.320312 0.0820312 5.441406 0.3125 4.515625 0.3125 C 3.867188 0.3125 3.34375 0.191406 2.9375 -0.046875 C 2.53125 -0.296875 2.21875 -0.578125 2 -0.890625 C 1.875 -1.078125 1.773438 -1.285156 1.703125 -1.515625 C 1.628906 -1.742188 1.582031 -1.972656 1.5625 -2.203125 C 1.539062 -2.429688 1.53125 -2.648438 1.53125 -2.859375 C 1.53125 -3.066406 1.53125 -3.257812 1.53125 -3.4375 L 1.53125 -9.046875 C 1.53125 -10.210938 1.097656 -10.816406 0.234375 -10.859375 L 0.234375 -11.453125 Z M 5.921875 -11.78125 "/></g></g></g><g fill="#000000" fill-opacity="1"><g transform="translate(406.028557, 41.414829)"><g><path d="M 6.0625 -3.40625 C 6.0625 -3.144531 6.0625 -2.890625 6.0625 -2.640625 C 6.0625 -2.398438 6.097656 -2.1875 6.171875 -2 C 6.242188 -1.820312 6.375 -1.675781 6.5625 -1.5625 C 6.75 -1.457031 7.03125 -1.40625 7.40625 -1.40625 C 7.96875 -1.40625 8.441406 -1.535156 8.828125 -1.796875 C 9.210938 -2.054688 9.53125 -2.382812 9.78125 -2.78125 C 10.03125 -3.1875 10.207031 -3.640625 10.3125 -4.140625 C 10.425781 -4.640625 10.484375 -5.125 10.484375 -5.59375 C 10.484375 -6.28125 10.378906 -6.898438 10.171875 -7.453125 C 9.972656 -8.003906 9.703125 -8.472656 9.359375 -8.859375 C 9.015625 -9.253906 8.609375 -9.550781 8.140625 -9.75 C 7.679688 -9.957031 7.191406 -10.0625 6.671875 -10.0625 L 6.0625 -10.0625 Z M 8.15625 -11.59375 C 9.425781 -11.59375 10.460938 -11.441406 11.265625 -11.140625 C 12.078125 -10.847656 12.742188 -10.453125 13.265625 -9.953125 C 13.679688 -9.535156 14.015625 -9.109375 14.265625 -8.671875 C 14.523438 -8.234375 14.71875 -7.8125 14.84375 -7.40625 C 14.976562 -7.007812 15.066406 -6.644531 15.109375 -6.3125 C 15.160156 -5.976562 15.1875 -5.691406 15.1875 -5.453125 C 15.1875 -5.160156 15.160156 -4.835938 15.109375 -4.484375 C 15.054688 -4.128906 14.957031 -3.765625 14.8125 -3.390625 C 14.675781 -3.023438 14.476562 -2.65625 14.21875 -2.28125 C 13.96875 -1.90625 13.648438 -1.546875 13.265625 -1.203125 C 12.734375 -0.742188 12.03125 -0.390625 11.15625 -0.140625 C 10.289062 0.109375 9.269531 0.234375 8.09375 0.234375 C 7.875 0.234375 7.632812 0.222656 7.375 0.203125 C 7.113281 0.191406 6.675781 0.15625 6.0625 0.09375 L 6.0625 2.703125 C 6.0625 2.828125 6.078125 2.988281 6.109375 3.1875 C 6.140625 3.382812 6.207031 3.578125 6.3125 3.765625 C 6.414062 3.953125 6.5625 4.117188 6.75 4.265625 C 6.9375 4.410156 7.195312 4.492188 7.53125 4.515625 L 7.53125 5.109375 L 0.171875 5.109375 L 0.171875 4.515625 C 0.453125 4.492188 0.6875 4.425781 0.875 4.3125 C 1.0625 4.207031 1.210938 4.066406 1.328125 3.890625 C 1.441406 3.722656 1.523438 3.535156 1.578125 3.328125 C 1.640625 3.117188 1.671875 2.90625 1.671875 2.6875 L 1.671875 -9.1875 C 1.671875 -10.363281 1.238281 -10.96875 0.375 -11 L 0.375 -11.59375 Z M 8.15625 -11.59375 "/></g></g></g><g fill="#000000" fill-opacity="1"><g transform="translate(422.01298, 41.414829)"><g><path d="M 6.0625 -3.40625 C 6.0625 -3.144531 6.0625 -2.890625 6.0625 -2.640625 C 6.0625 -2.398438 6.097656 -2.1875 6.171875 -2 C 6.242188 -1.820312 6.375 -1.675781 6.5625 -1.5625 C 6.75 -1.457031 7.03125 -1.40625 7.40625 -1.40625 C 7.96875 -1.40625 8.441406 -1.535156 8.828125 -1.796875 C 9.210938 -2.054688 9.53125 -2.382812 9.78125 -2.78125 C 10.03125 -3.1875 10.207031 -3.640625 10.3125 -4.140625 C 10.425781 -4.640625 10.484375 -5.125 10.484375 -5.59375 C 10.484375 -6.28125 10.378906 -6.898438 10.171875 -7.453125 C 9.972656 -8.003906 9.703125 -8.472656 9.359375 -8.859375 C 9.015625 -9.253906 8.609375 -9.550781 8.140625 -9.75 C 7.679688 -9.957031 7.191406 -10.0625 6.671875 -10.0625 L 6.0625 -10.0625 Z M 8.15625 -11.59375 C 9.425781 -11.59375 10.460938 -11.441406 11.265625 -11.140625 C 12.078125 -10.847656 12.742188 -10.453125 13.265625 -9.953125 C 13.679688 -9.535156 14.015625 -9.109375 14.265625 -8.671875 C 14.523438 -8.234375 14.71875 -7.8125 14.84375 -7.40625 C 14.976562 -7.007812 15.066406 -6.644531 15.109375 -6.3125 C 15.160156 -5.976562 15.1875 -5.691406 15.1875 -5.453125 C 15.1875 -5.160156 15.160156 -4.835938 15.109375 -4.484375 C 15.054688 -4.128906 14.957031 -3.765625 14.8125 -3.390625 C 14.675781 -3.023438 14.476562 -2.65625 14.21875 -2.28125 C 13.96875 -1.90625 13.648438 -1.546875 13.265625 -1.203125 C 12.734375 -0.742188 12.03125 -0.390625 11.15625 -0.140625 C 10.289062 0.109375 9.269531 0.234375 8.09375 0.234375 C 7.875 0.234375 7.632812 0.222656 7.375 0.203125 C 7.113281 0.191406 6.675781 0.15625 6.0625 0.09375 L 6.0625 2.703125 C 6.0625 2.828125 6.078125 2.988281 6.109375 3.1875 C 6.140625 3.382812 6.207031 3.578125 6.3125 3.765625 C 6.414062 3.953125 6.5625 4.117188 6.75 4.265625 C 6.9375 4.410156 7.195312 4.492188 7.53125 4.515625 L 7.53125 5.109375 L 0.171875 5.109375 L 0.171875 4.515625 C 0.453125 4.492188 0.6875 4.425781 0.875 4.3125 C 1.0625 4.207031 1.210938 4.066406 1.328125 3.890625 C 1.441406 3.722656 1.523438 3.535156 1.578125 3.328125 C 1.640625 3.117188 1.671875 2.90625 1.671875 2.6875 L 1.671875 -9.1875 C 1.671875 -10.363281 1.238281 -10.96875 0.375 -11 L 0.375 -11.59375 Z M 8.15625 -11.59375 "/></g></g></g><g fill="#000000" fill-opacity="1"><g transform="translate(437.997403, 41.414829)"><g><path d="M 7.671875 -10.109375 C 7.222656 -10.109375 6.859375 -9.988281 6.578125 -9.75 C 6.296875 -9.519531 6.066406 -9.21875 5.890625 -8.84375 C 5.722656 -8.46875 5.601562 -8.050781 5.53125 -7.59375 C 5.46875 -7.132812 5.4375 -6.6875 5.4375 -6.25 C 5.4375 -5.84375 5.46875 -5.367188 5.53125 -4.828125 C 5.601562 -4.285156 5.738281 -3.769531 5.9375 -3.28125 C 6.132812 -2.789062 6.394531 -2.367188 6.71875 -2.015625 C 7.050781 -1.671875 7.476562 -1.5 8 -1.5 C 8.4375 -1.5 8.785156 -1.648438 9.046875 -1.953125 C 9.316406 -2.253906 9.53125 -2.613281 9.6875 -3.03125 C 9.84375 -3.457031 9.945312 -3.894531 10 -4.34375 C 10.0625 -4.789062 10.09375 -5.160156 10.09375 -5.453125 C 10.09375 -5.816406 10.0625 -6.257812 10 -6.78125 C 9.945312 -7.3125 9.832031 -7.820312 9.65625 -8.3125 C 9.488281 -8.800781 9.242188 -9.222656 8.921875 -9.578125 C 8.597656 -9.929688 8.179688 -10.109375 7.671875 -10.109375 Z M 0.734375 -5.53125 C 0.734375 -6.5625 0.929688 -7.476562 1.328125 -8.28125 C 1.722656 -9.082031 2.253906 -9.75 2.921875 -10.28125 C 3.585938 -10.8125 4.351562 -11.210938 5.21875 -11.484375 C 6.09375 -11.765625 7.003906 -11.90625 7.953125 -11.90625 C 8.867188 -11.90625 9.742188 -11.773438 10.578125 -11.515625 C 11.410156 -11.265625 12.132812 -10.882812 12.75 -10.375 C 13.375 -9.875 13.867188 -9.238281 14.234375 -8.46875 C 14.609375 -7.695312 14.796875 -6.796875 14.796875 -5.765625 C 14.796875 -4.742188 14.597656 -3.851562 14.203125 -3.09375 C 13.804688 -2.332031 13.28125 -1.703125 12.625 -1.203125 C 11.96875 -0.703125 11.210938 -0.320312 10.359375 -0.0625 C 9.515625 0.1875 8.640625 0.3125 7.734375 0.3125 C 6.429688 0.3125 5.265625 0.125 4.234375 -0.25 C 3.210938 -0.632812 2.4375 -1.171875 1.90625 -1.859375 C 1.539062 -2.328125 1.253906 -2.863281 1.046875 -3.46875 C 0.835938 -4.082031 0.734375 -4.769531 0.734375 -5.53125 Z M 0.734375 -5.53125 "/></g></g></g><g fill="#000000" fill-opacity="1"><g transform="translate(453.51169, 41.414829)"><g><path d="M 5.828125 -9.171875 C 5.972656 -9.515625 6.175781 -9.84375 6.4375 -10.15625 C 6.707031 -10.46875 7.003906 -10.742188 7.328125 -10.984375 C 7.660156 -11.234375 8.015625 -11.429688 8.390625 -11.578125 C 8.765625 -11.734375 9.132812 -11.8125 9.5 -11.8125 C 9.644531 -11.8125 9.8125 -11.800781 10 -11.78125 C 10.1875 -11.769531 10.410156 -11.722656 10.671875 -11.640625 L 9.859375 -8.421875 C 9.609375 -8.648438 9.347656 -8.816406 9.078125 -8.921875 C 8.804688 -9.035156 8.492188 -9.09375 8.140625 -9.09375 C 7.828125 -9.09375 7.5 -9.007812 7.15625 -8.84375 C 6.820312 -8.6875 6.519531 -8.390625 6.25 -7.953125 C 6.175781 -7.828125 6.109375 -7.710938 6.046875 -7.609375 C 5.992188 -7.503906 5.953125 -7.375 5.921875 -7.21875 C 5.890625 -7.0625 5.863281 -6.867188 5.84375 -6.640625 C 5.832031 -6.410156 5.828125 -6.101562 5.828125 -5.71875 L 5.828125 -2.40625 C 5.828125 -2.269531 5.84375 -2.097656 5.875 -1.890625 C 5.90625 -1.691406 5.96875 -1.5 6.0625 -1.3125 C 6.15625 -1.125 6.289062 -0.957031 6.46875 -0.8125 C 6.65625 -0.675781 6.898438 -0.601562 7.203125 -0.59375 L 7.21875 -0.59375 L 7.21875 0 L 0.140625 0 L 0.140625 -0.59375 L 0.171875 -0.59375 C 0.453125 -0.601562 0.671875 -0.675781 0.828125 -0.8125 C 0.992188 -0.957031 1.117188 -1.125 1.203125 -1.3125 C 1.296875 -1.5 1.359375 -1.691406 1.390625 -1.890625 C 1.421875 -2.097656 1.4375 -2.273438 1.4375 -2.421875 L 1.4375 -9.046875 C 1.4375 -10.222656 1.003906 -10.828125 0.140625 -10.859375 L 0.140625 -11.453125 L 5.125 -11.78125 C 5.394531 -11.414062 5.570312 -11.007812 5.65625 -10.5625 C 5.738281 -10.125 5.796875 -9.660156 5.828125 -9.171875 Z M 5.828125 -9.171875 "/></g></g></g><g fill="#000000" fill-opacity="1"><g transform="translate(463.854553, 41.414829)"><g><path d="M 1.859375 -14.5625 C 2.796875 -14.726562 3.59375 -14.960938 4.25 -15.265625 C 4.914062 -15.578125 5.546875 -15.910156 6.140625 -16.265625 L 6.140625 -11.375 L 8.015625 -11.375 C 8.160156 -11.375 8.375 -11.390625 8.65625 -11.421875 C 8.9375 -11.453125 9.175781 -11.523438 9.375 -11.640625 L 8.671875 -9.78125 C 8.597656 -9.84375 8.515625 -9.882812 8.421875 -9.90625 C 8.328125 -9.9375 8.125 -9.953125 7.8125 -9.953125 L 6.140625 -9.953125 L 6.140625 -4.28125 C 6.140625 -3.445312 6.257812 -2.847656 6.5 -2.484375 C 6.738281 -2.128906 7.085938 -1.953125 7.546875 -1.953125 C 7.828125 -1.953125 8.082031 -2.015625 8.3125 -2.140625 C 8.550781 -2.265625 8.765625 -2.425781 8.953125 -2.625 C 9.140625 -2.820312 9.304688 -3.039062 9.453125 -3.28125 C 9.609375 -3.519531 9.75 -3.765625 9.875 -4.015625 L 10.375 -3.828125 L 9.171875 -0.46875 C 8.546875 -0.207031 7.914062 -0.015625 7.28125 0.109375 C 6.644531 0.242188 6.03125 0.3125 5.4375 0.3125 C 4.675781 0.3125 4.054688 0.203125 3.578125 -0.015625 C 3.109375 -0.242188 2.738281 -0.503906 2.46875 -0.796875 C 2.125 -1.191406 1.914062 -1.65625 1.84375 -2.1875 C 1.769531 -2.71875 1.734375 -3.203125 1.734375 -3.640625 L 1.734375 -9.953125 L 0.078125 -9.953125 L 0.078125 -10.53125 C 0.734375 -10.675781 1.222656 -11.007812 1.546875 -11.53125 C 1.878906 -12.0625 2.046875 -12.65625 2.046875 -13.3125 C 2.046875 -13.5 2.03125 -13.691406 2 -13.890625 C 1.96875 -14.085938 1.921875 -14.3125 1.859375 -14.5625 Z M 1.859375 -14.5625 "/></g></g></g><g fill="#000000" fill-opacity="1"><g transform="translate(474.197416, 41.414829)"><g><path d="M 7.3125 -10.09375 C 6.914062 -10.09375 6.585938 -9.984375 6.328125 -9.765625 C 6.078125 -9.546875 5.875 -9.273438 5.71875 -8.953125 C 5.5625 -8.628906 5.453125 -8.28125 5.390625 -7.90625 C 5.328125 -7.539062 5.296875 -7.207031 5.296875 -6.90625 L 9.171875 -7.6875 C 9.203125 -8.0625 9.171875 -8.394531 9.078125 -8.6875 C 8.992188 -8.988281 8.863281 -9.242188 8.6875 -9.453125 C 8.519531 -9.660156 8.316406 -9.816406 8.078125 -9.921875 C 7.835938 -10.035156 7.582031 -10.09375 7.3125 -10.09375 Z M 0.59375 -5.875 C 0.59375 -6.863281 0.785156 -7.734375 1.171875 -8.484375 C 1.566406 -9.242188 2.082031 -9.875 2.71875 -10.375 C 3.363281 -10.882812 4.109375 -11.265625 4.953125 -11.515625 C 5.804688 -11.773438 6.695312 -11.90625 7.625 -11.90625 C 8.414062 -11.90625 9.160156 -11.804688 9.859375 -11.609375 C 10.554688 -11.421875 11.179688 -11.128906 11.734375 -10.734375 C 12.296875 -10.347656 12.757812 -9.859375 13.125 -9.265625 C 13.5 -8.679688 13.753906 -7.992188 13.890625 -7.203125 L 5.4375 -5.484375 C 5.5 -4.984375 5.613281 -4.5 5.78125 -4.03125 C 5.957031 -3.570312 6.191406 -3.164062 6.484375 -2.8125 C 6.785156 -2.457031 7.144531 -2.171875 7.5625 -1.953125 C 7.976562 -1.742188 8.457031 -1.640625 9 -1.640625 C 9.894531 -1.640625 10.707031 -1.882812 11.4375 -2.375 C 12.164062 -2.875 12.726562 -3.570312 13.125 -4.46875 L 13.609375 -4.28125 L 12.15625 0.234375 C 12.03125 0.140625 11.90625 0.0625 11.78125 0 C 11.65625 -0.0507812 11.5 -0.078125 11.3125 -0.078125 C 11.101562 -0.078125 10.78125 -0.0351562 10.34375 0.046875 C 9.96875 0.109375 9.578125 0.164062 9.171875 0.21875 C 8.765625 0.28125 8.34375 0.3125 7.90625 0.3125 C 6.675781 0.3125 5.601562 0.140625 4.6875 -0.203125 C 3.769531 -0.554688 3.003906 -1.019531 2.390625 -1.59375 C 1.785156 -2.175781 1.332031 -2.832031 1.03125 -3.5625 C 0.738281 -4.300781 0.59375 -5.070312 0.59375 -5.875 Z M 0.59375 -5.875 "/></g></g></g><g fill="#000000" fill-opacity="1"><g transform="translate(488.301319, 41.414829)"><g><path d="M 8.9375 -10.25 C 8.5 -10.21875 8.070312 -10.082031 7.65625 -9.84375 C 7.238281 -9.613281 6.875 -9.296875 6.5625 -8.890625 C 6.25 -8.484375 5.992188 -7.992188 5.796875 -7.421875 C 5.597656 -6.859375 5.5 -6.25 5.5 -5.59375 C 5.5 -5.144531 5.550781 -4.675781 5.65625 -4.1875 C 5.769531 -3.695312 5.941406 -3.25 6.171875 -2.84375 C 6.410156 -2.4375 6.71875 -2.101562 7.09375 -1.84375 C 7.476562 -1.582031 7.9375 -1.453125 8.46875 -1.453125 C 8.5625 -1.453125 8.679688 -1.460938 8.828125 -1.484375 C 8.972656 -1.515625 9.117188 -1.566406 9.265625 -1.640625 C 9.410156 -1.722656 9.53125 -1.847656 9.625 -2.015625 C 9.71875 -2.191406 9.765625 -2.429688 9.765625 -2.734375 L 9.765625 -10.203125 C 9.648438 -10.234375 9.53125 -10.25 9.40625 -10.25 C 9.28125 -10.25 9.125 -10.25 8.9375 -10.25 Z M 14.15625 -15.875 L 14.15625 -2.421875 C 14.15625 -1.828125 14.269531 -1.378906 14.5 -1.078125 C 14.726562 -0.785156 15.046875 -0.625 15.453125 -0.59375 L 15.453125 0 L 7.296875 0 C 6.253906 0 5.375 -0.0625 4.65625 -0.1875 C 3.945312 -0.3125 3.296875 -0.609375 2.703125 -1.078125 C 2.203125 -1.484375 1.757812 -2.035156 1.375 -2.734375 C 0.988281 -3.429688 0.796875 -4.320312 0.796875 -5.40625 C 0.796875 -6.519531 0.988281 -7.484375 1.375 -8.296875 C 1.757812 -9.117188 2.285156 -9.796875 2.953125 -10.328125 C 3.617188 -10.859375 4.394531 -11.253906 5.28125 -11.515625 C 6.175781 -11.773438 7.144531 -11.90625 8.1875 -11.90625 C 8.5 -11.90625 8.785156 -11.894531 9.046875 -11.875 C 9.304688 -11.863281 9.546875 -11.84375 9.765625 -11.8125 L 9.765625 -13.1875 C 9.765625 -13.78125 9.632812 -14.210938 9.375 -14.484375 C 9.125 -14.765625 8.734375 -14.921875 8.203125 -14.953125 L 8.203125 -15.546875 Z M 14.15625 -15.875 "/></g></g></g><g fill="#000000" fill-opacity="1"><g transform="translate(504.285742, 41.414829)"><g/></g></g><g fill="#000000" fill-opacity="1"><g transform="translate(512.27795, 41.414829)"><g><path d="M 6.953125 -10.28125 C 6.765625 -10.28125 6.613281 -10.273438 6.5 -10.265625 C 6.382812 -10.253906 6.265625 -10.234375 6.140625 -10.203125 L 6.140625 -3.015625 C 6.140625 -2.796875 6.15625 -2.585938 6.1875 -2.390625 C 6.21875 -2.203125 6.28125 -2.035156 6.375 -1.890625 C 6.46875 -1.753906 6.597656 -1.644531 6.765625 -1.5625 C 6.941406 -1.488281 7.171875 -1.453125 7.453125 -1.453125 C 7.785156 -1.453125 8.128906 -1.523438 8.484375 -1.671875 C 8.847656 -1.828125 9.175781 -2.066406 9.46875 -2.390625 C 9.769531 -2.710938 10.015625 -3.128906 10.203125 -3.640625 C 10.390625 -4.160156 10.484375 -4.796875 10.484375 -5.546875 C 10.484375 -6.035156 10.410156 -6.550781 10.265625 -7.09375 C 10.128906 -7.644531 9.914062 -8.15625 9.625 -8.625 C 9.332031 -9.09375 8.96875 -9.484375 8.53125 -9.796875 C 8.09375 -10.117188 7.566406 -10.28125 6.953125 -10.28125 Z M 6.140625 -15.875 L 6.140625 -11.8125 C 6.585938 -11.851562 6.960938 -11.878906 7.265625 -11.890625 C 7.566406 -11.910156 7.800781 -11.921875 7.96875 -11.921875 C 8.945312 -11.921875 9.875 -11.773438 10.75 -11.484375 C 11.625 -11.191406 12.390625 -10.769531 13.046875 -10.21875 C 13.703125 -9.675781 14.222656 -8.992188 14.609375 -8.171875 C 14.992188 -7.347656 15.1875 -6.410156 15.1875 -5.359375 C 15.1875 -4.796875 15.113281 -4.257812 14.96875 -3.75 C 14.832031 -3.238281 14.609375 -2.773438 14.296875 -2.359375 C 13.796875 -1.648438 13.128906 -1.078125 12.296875 -0.640625 C 11.460938 -0.210938 10.378906 0 9.046875 0 L 0.46875 0 L 0.46875 -0.59375 C 0.800781 -0.601562 1.09375 -0.734375 1.34375 -0.984375 C 1.601562 -1.234375 1.734375 -1.707031 1.734375 -2.40625 L 1.734375 -13.171875 C 1.734375 -14.285156 1.335938 -14.878906 0.546875 -14.953125 L 0.46875 -14.953125 L 0.46875 -15.546875 Z M 6.140625 -15.875 "/></g></g></g><g fill="#000000" fill-opacity="1"><g transform="translate(528.262373, 41.414829)"><g><path d="M 7.296875 -11.59375 L 7.296875 -11 C 6.523438 -11 6.140625 -10.757812 6.140625 -10.28125 C 6.140625 -10.15625 6.171875 -9.984375 6.234375 -9.765625 C 6.304688 -9.554688 6.382812 -9.347656 6.46875 -9.140625 L 8.15625 -4.625 L 9.6875 -8.671875 C 9.769531 -8.859375 9.847656 -9.082031 9.921875 -9.34375 C 10.003906 -9.601562 10.046875 -9.867188 10.046875 -10.140625 C 10.046875 -10.703125 9.707031 -10.988281 9.03125 -11 L 9.03125 -11.59375 L 13.796875 -11.59375 L 13.796875 -11 C 13.296875 -10.988281 12.863281 -10.753906 12.5 -10.296875 C 12.144531 -9.847656 11.75 -9.097656 11.3125 -8.046875 L 7.203125 1.453125 C 6.972656 1.972656 6.726562 2.445312 6.46875 2.875 C 6.21875 3.3125 5.921875 3.6875 5.578125 4 C 5.242188 4.3125 4.851562 4.554688 4.40625 4.734375 C 3.957031 4.921875 3.4375 5.015625 2.84375 5.015625 C 2.34375 5.015625 1.84375 4.914062 1.34375 4.71875 C 0.84375 4.53125 0.394531 4.296875 0 4.015625 L 1.390625 0.96875 L 1.875 1.15625 C 1.832031 1.382812 1.8125 1.5625 1.8125 1.6875 C 1.8125 2.050781 1.957031 2.347656 2.25 2.578125 C 2.550781 2.804688 2.859375 2.921875 3.171875 2.921875 C 3.503906 2.921875 3.804688 2.835938 4.078125 2.671875 C 4.347656 2.503906 4.578125 2.296875 4.765625 2.046875 C 4.960938 1.796875 5.113281 1.515625 5.21875 1.203125 C 5.332031 0.890625 5.390625 0.578125 5.390625 0.265625 C 5.390625 -0.273438 5.289062 -0.796875 5.09375 -1.296875 C 4.894531 -1.796875 4.691406 -2.265625 4.484375 -2.703125 L 1.578125 -9.09375 C 1.460938 -9.332031 1.347656 -9.5625 1.234375 -9.78125 C 1.128906 -10 1.003906 -10.195312 0.859375 -10.375 C 0.710938 -10.5625 0.539062 -10.707031 0.34375 -10.8125 C 0.144531 -10.925781 -0.0859375 -10.988281 -0.359375 -11 L -0.359375 -11.59375 Z M 7.296875 -11.59375 "/></g></g></g><g clip-path="url(#bd5c614a0a)"><path fill="#fff247" d="M 569.421875 40.507812 L 594.140625 40.507812 L 594.140625 65.226562 L 569.421875 65.226562 Z M 569.421875 40.507812 " fill-opacity="1" fill-rule="nonzero"/></g><g clip-path="url(#c534913559)"><g clip-path="url(#5ddca144df)"><path fill="#f9447f" d="M 587.46875 48.71875 L 589.410156 48.71875 L 589.410156 50.660156 L 587.46875 50.660156 Z M 587.46875 48.71875 " fill-opacity="1" fill-rule="nonzero"/></g></g><g clip-path="url(#f9b27854d9)"><g clip-path="url(#22a8ee98d9)"><path fill="#395ce0" d="M 587.003906 50.535156 L 588.964844 50.535156 L 588.964844 52.496094 L 587.003906 52.496094 Z M 587.003906 50.535156 " fill-opacity="1" fill-rule="nonzero"/></g></g><g clip-path="url(#4e341d6894)"><path fill="#000000" d="M 592.019531 61.441406 C 592.316406 61.957031 592.601562 62.464844 592.898438 62.972656 C 593.058594 63.25 593.011719 63.617188 592.824219 63.816406 C 592.554688 64.113281 592.003906 64.09375 591.785156 63.734375 C 591.601562 63.433594 591.429688 63.121094 591.253906 62.816406 C 590.953125 62.300781 590.675781 61.773438 590.316406 61.292969 C 589.90625 60.75 589.421875 60.277344 588.878906 59.867188 C 588.257812 59.398438 587.636719 58.925781 587.015625 58.457031 C 586.371094 57.96875 585.726562 57.476562 585.082031 56.988281 C 584.898438 56.851562 584.804688 56.671875 584.804688 56.433594 C 584.808594 55.46875 584.808594 54.5 584.808594 53.535156 C 584.808594 53.367188 584.785156 53.351562 584.628906 53.414062 C 584.378906 53.519531 584.117188 53.574219 583.839844 53.539062 C 583.570312 53.503906 583.394531 53.339844 583.304688 53.09375 C 583.21875 52.835938 583.28125 52.597656 583.472656 52.40625 C 583.605469 52.277344 583.765625 52.199219 583.953125 52.207031 C 584.035156 52.210938 584.105469 52.175781 584.171875 52.140625 C 584.324219 52.054688 584.332031 52.011719 584.253906 51.855469 C 584.179688 51.714844 584.121094 51.5625 584.039062 51.425781 C 583.761719 50.953125 583.355469 50.671875 582.804688 50.65625 C 581.910156 50.625 581.175781 50.269531 580.597656 49.59375 C 580.378906 49.335938 580.25 49.023438 580.105469 48.71875 C 579.90625 48.292969 579.5625 48.042969 579.105469 47.925781 C 578.878906 47.867188 578.648438 47.894531 578.421875 47.851562 C 578.15625 47.808594 577.902344 47.738281 577.664062 47.621094 C 577.117188 47.351562 576.664062 46.972656 576.378906 46.421875 C 576.316406 46.296875 576.261719 46.171875 576.199219 46.046875 C 576.183594 46.007812 576.175781 45.960938 576.128906 45.9375 C 576.082031 45.941406 576.070312 45.980469 576.054688 46.011719 C 575.867188 46.371094 575.714844 46.746094 575.605469 47.136719 C 575.464844 47.632812 575.417969 48.136719 575.394531 48.648438 C 575.386719 48.808594 575.324219 48.960938 575.292969 49.117188 C 575.25 49.328125 575.1875 49.53125 575.136719 49.738281 C 575.039062 50.128906 574.949219 50.519531 574.855469 50.910156 C 574.773438 51.246094 574.695312 51.582031 574.617188 51.921875 C 574.578125 52.078125 574.539062 52.234375 574.5 52.390625 C 574.542969 52.4375 574.59375 52.421875 574.640625 52.421875 C 574.855469 52.425781 575.070312 52.429688 575.289062 52.421875 C 575.644531 52.414062 575.953125 52.742188 575.964844 53.09375 C 575.972656 53.367188 576.015625 53.640625 576.039062 53.910156 C 576.070312 54.296875 576.09375 54.683594 576.136719 55.070312 C 576.164062 55.292969 576.167969 55.515625 576.210938 55.734375 C 576.289062 56.125 576.613281 56.429688 577 56.527344 C 577.261719 56.59375 577.492188 56.515625 577.730469 56.457031 C 578.097656 56.371094 578.460938 56.273438 578.824219 56.175781 C 579.128906 56.09375 579.429688 56.007812 579.734375 55.929688 C 579.910156 55.878906 580.085938 55.832031 580.265625 55.792969 C 580.546875 55.734375 580.902344 55.976562 581 56.25 C 581.117188 56.570312 580.914062 56.988281 580.625 57.082031 C 580.546875 57.109375 580.527344 57.164062 580.527344 57.246094 C 580.507812 57.738281 580.515625 58.234375 580.515625 58.726562 C 580.515625 58.890625 580.484375 59.046875 580.390625 59.183594 C 580.277344 59.351562 580.101562 59.421875 579.917969 59.484375 C 579.582031 59.59375 579.238281 59.695312 578.898438 59.804688 C 578.4375 59.953125 577.976562 60.105469 577.515625 60.253906 C 577.0625 60.398438 576.609375 60.550781 576.152344 60.691406 C 575.570312 60.871094 575.019531 61.109375 574.496094 61.421875 C 573.675781 61.917969 572.996094 62.558594 572.425781 63.328125 C 572.300781 63.492188 572.167969 63.65625 572.035156 63.816406 C 571.855469 64.027344 571.605469 64.058594 571.363281 64.003906 C 571.117188 63.953125 570.945312 63.777344 570.890625 63.53125 C 570.84375 63.332031 570.863281 63.125 571 62.949219 C 571.542969 62.242188 572.089844 61.542969 572.789062 60.976562 C 573.421875 60.460938 574.109375 60.035156 574.863281 59.71875 C 575.320312 59.527344 575.792969 59.378906 576.265625 59.230469 C 576.859375 59.042969 577.453125 58.847656 578.046875 58.660156 C 578.386719 58.550781 578.730469 58.441406 579.074219 58.332031 C 579.121094 58.320312 579.160156 58.300781 579.160156 58.246094 C 579.160156 58.003906 579.160156 57.757812 579.160156 57.511719 C 579.046875 57.484375 578.957031 57.539062 578.863281 57.5625 C 578.453125 57.671875 578.042969 57.789062 577.625 57.875 C 577.371094 57.929688 577.113281 57.921875 576.859375 57.878906 C 576.492188 57.816406 576.144531 57.6875 575.84375 57.460938 C 575.324219 57.078125 574.988281 56.578125 574.875 55.9375 C 574.828125 55.671875 574.8125 55.398438 574.792969 55.128906 C 574.761719 54.753906 574.726562 54.378906 574.683594 54.007812 C 574.652344 53.753906 574.644531 53.753906 574.386719 53.757812 C 574.136719 53.757812 573.890625 53.765625 573.660156 53.632812 C 573.378906 53.464844 573.195312 53.238281 573.109375 52.917969 C 573.046875 52.683594 573.089844 52.46875 573.144531 52.25 C 573.199219 52.039062 573.242188 51.828125 573.292969 51.613281 C 573.371094 51.300781 573.449219 50.988281 573.527344 50.671875 C 573.605469 50.34375 573.679688 50.019531 573.757812 49.691406 C 573.8125 49.480469 573.871094 49.269531 573.917969 49.058594 C 573.976562 48.765625 574.082031 48.480469 574.070312 48.167969 C 574.0625 47.949219 574.109375 47.726562 574.144531 47.507812 C 574.1875 47.183594 574.265625 46.867188 574.363281 46.554688 C 574.5625 45.914062 574.855469 45.320312 575.238281 44.773438 C 575.847656 43.898438 576.617188 43.203125 577.550781 42.691406 C 578.101562 42.386719 578.6875 42.175781 579.300781 42.035156 C 579.957031 41.886719 580.621094 41.863281 581.285156 41.910156 C 581.910156 41.953125 582.519531 42.097656 583.105469 42.328125 C 584.125 42.730469 584.996094 43.34375 585.722656 44.160156 C 586.285156 44.789062 586.722656 45.492188 587.003906 46.289062 C 587.066406 46.46875 587.132812 46.644531 587.175781 46.828125 C 587.191406 46.898438 587.226562 46.945312 587.3125 46.929688 C 587.691406 46.867188 588.0625 46.898438 588.4375 46.972656 C 589.140625 47.113281 589.746094 47.445312 590.253906 47.949219 C 590.648438 48.34375 590.925781 48.8125 591.113281 49.34375 C 591.289062 49.851562 591.324219 50.371094 591.265625 50.886719 C 591.171875 51.707031 590.8125 52.414062 590.226562 53 C 589.8125 53.410156 589.324219 53.695312 588.773438 53.871094 C 588.300781 54.023438 587.808594 54.054688 587.320312 54.007812 C 586.921875 53.96875 586.539062 53.855469 586.183594 53.679688 C 586.125 53.714844 586.140625 53.765625 586.140625 53.808594 C 586.136719 54.546875 586.136719 55.28125 586.136719 56.019531 C 586.136719 56.082031 586.160156 56.125 586.214844 56.164062 C 586.980469 56.742188 587.746094 57.316406 588.507812 57.898438 C 589.085938 58.339844 589.6875 58.757812 590.234375 59.234375 C 590.886719 59.804688 591.4375 60.460938 591.882812 61.207031 C 591.925781 61.285156 591.972656 61.359375 592.019531 61.441406 M 579.542969 43.371094 C 579.273438 43.4375 579.011719 43.515625 578.75 43.621094 C 578.128906 43.867188 577.578125 44.222656 577.089844 44.679688 C 577.023438 44.742188 577.011719 44.789062 577.074219 44.863281 C 577.214844 45.046875 577.324219 45.25 577.421875 45.460938 C 577.511719 45.664062 577.589844 45.871094 577.742188 46.042969 C 578.085938 46.421875 578.535156 46.542969 579.023438 46.554688 C 579.277344 46.5625 579.523438 46.613281 579.757812 46.707031 C 580.515625 47.011719 581.082031 47.519531 581.394531 48.292969 C 581.492188 48.53125 581.617188 48.753906 581.820312 48.933594 C 582.136719 49.207031 582.507812 49.296875 582.90625 49.308594 C 583.171875 49.316406 583.433594 49.359375 583.675781 49.457031 C 584.386719 49.742188 584.949219 50.195312 585.289062 50.898438 C 585.320312 50.960938 585.339844 51.035156 585.40625 51.082031 C 585.480469 51.019531 585.507812 50.929688 585.546875 50.851562 C 585.710938 50.511719 585.835938 50.15625 585.921875 49.792969 C 585.972656 49.574219 586 49.351562 586.03125 49.125 C 586.089844 48.679688 586.066406 48.234375 586.007812 47.792969 C 585.960938 47.46875 585.871094 47.148438 585.761719 46.835938 C 585.519531 46.144531 585.144531 45.527344 584.652344 44.988281 C 584.085938 44.371094 583.410156 43.902344 582.628906 43.59375 C 582.058594 43.371094 581.464844 43.257812 580.855469 43.230469 C 580.417969 43.210938 579.988281 43.289062 579.542969 43.371094 M 589.933594 50.59375 C 589.953125 50.164062 589.875 49.753906 589.65625 49.386719 C 589.179688 48.582031 588.464844 48.210938 587.53125 48.261719 C 587.441406 48.265625 587.402344 48.300781 587.414062 48.390625 C 587.429688 48.511719 587.4375 48.628906 587.421875 48.75 C 587.382812 49.164062 587.363281 49.578125 587.265625 49.984375 C 587.207031 50.234375 587.140625 50.484375 587.058594 50.726562 C 586.894531 51.207031 586.683594 51.664062 586.410156 52.089844 C 586.351562 52.175781 586.371094 52.222656 586.453125 52.273438 C 586.757812 52.476562 587.082031 52.609375 587.453125 52.652344 C 587.855469 52.703125 588.242188 52.660156 588.605469 52.492188 C 589.402344 52.121094 589.839844 51.488281 589.933594 50.59375 Z M 589.933594 50.59375 " fill-opacity="1" fill-rule="nonzero"/></g><path fill="#000000" d="M 577.035156 50.8125 C 576.601562 50.835938 576.277344 50.460938 576.3125 50.101562 C 576.34375 49.785156 576.558594 49.488281 577 49.464844 C 577.1875 49.453125 577.371094 49.445312 577.558594 49.480469 C 577.832031 49.527344 578.089844 49.792969 578.117188 50.066406 C 578.140625 50.371094 577.941406 50.675781 577.667969 50.773438 C 577.460938 50.84375 577.253906 50.796875 577.035156 50.8125 Z M 577.035156 50.8125 " fill-opacity="1" fill-rule="nonzero"/><g fill="#000000" fill-opacity="1"><g transform="translate(597.530954, 63.983694)"><g><path d="M 16.355469 -8.5 L 16.355469 -14.519531 C 16.355469 -18.835938 14.101562 -22.730469 7.535156 -22.730469 L 3.894531 -22.730469 C 3.058594 -22.730469 2.351562 -22.023438 2.351562 -21.1875 L 2.351562 -1.546875 C 2.351562 -0.707031 3.058594 0 3.894531 0 L 7.535156 0 C 14.136719 0 16.355469 -4.089844 16.355469 -8.5 Z M 13.78125 -8.5 C 13.78125 -5.183594 12.332031 -2.511719 8.082031 -2.511719 L 4.925781 -2.511719 L 4.925781 -20.21875 L 8.082031 -20.21875 C 12.265625 -20.21875 13.78125 -17.710938 13.78125 -14.519531 Z M 13.78125 -8.5 "/></g></g></g><g fill="#000000" fill-opacity="1"><g transform="translate(618.588565, 63.983694)"><g><path d="M 14.199219 -1.320312 C 14.199219 -1.964844 13.585938 -2.511719 12.910156 -2.511719 L 4.925781 -2.511719 L 4.925781 -10.140625 L 11.976562 -10.140625 C 12.6875 -10.140625 13.234375 -10.691406 13.234375 -11.398438 C 13.234375 -12.105469 12.621094 -12.652344 11.976562 -12.652344 L 4.925781 -12.652344 L 4.925781 -20.1875 L 12.589844 -20.1875 C 13.296875 -20.1875 13.878906 -20.703125 13.878906 -21.410156 C 13.878906 -22.121094 13.296875 -22.699219 12.589844 -22.699219 L 3.863281 -22.699219 C 2.996094 -22.699219 2.351562 -21.925781 2.351562 -21.1875 L 2.351562 -1.511719 C 2.351562 -0.355469 3.316406 0 4.378906 0 L 12.910156 0 C 13.621094 0 14.199219 -0.578125 14.199219 -1.320312 Z M 14.199219 -1.320312 "/></g></g></g><g fill="#000000" fill-opacity="1"><g transform="translate(637.070334, 63.983694)"><g><path d="M 3.058594 -22.054688 C 2.867188 -22.636719 2.285156 -23.023438 1.835938 -23.023438 C 1.09375 -23.023438 0.484375 -22.507812 0.484375 -21.734375 C 0.484375 -21.605469 0.515625 -21.347656 0.546875 -21.25 L 6.824219 -1.382812 C 7.117188 -0.417969 7.566406 0.320312 8.5 0.320312 C 9.464844 0.320312 9.886719 -0.386719 10.207031 -1.382812 L 16.484375 -21.25 C 16.519531 -21.347656 16.550781 -21.605469 16.550781 -21.734375 C 16.550781 -22.507812 15.96875 -23.023438 15.199219 -23.023438 C 14.714844 -23.023438 14.101562 -22.636719 13.941406 -22.054688 L 8.5 -4.152344 Z M 3.058594 -22.054688 "/></g></g></g><g fill="#000000" fill-opacity="1"><g transform="translate(657.322993, 63.983694)"><g><path d="M 2.351562 -0.964844 C 2.351562 -0.289062 2.929688 0.320312 3.636719 0.320312 C 4.347656 0.320312 4.925781 -0.289062 4.925781 -0.964844 L 4.925781 -21.734375 C 4.925781 -22.410156 4.347656 -23.023438 3.636719 -23.023438 C 2.929688 -23.023438 2.351562 -22.410156 2.351562 -21.734375 Z M 2.351562 -0.964844 "/></g></g></g><g clip-path="url(#00285ffefe)"><path fill="#000000" d="M 569.421875 4.832031 L 583.679688 4.832031 L 583.679688 27.496094 L 569.421875 27.496094 Z M 569.421875 4.832031 " fill-opacity="1" fill-rule="nonzero"/></g><g clip-path="url(#d89e47f3ad)"><g clip-path="url(#82ab480dca)"><path fill="#ffffff" d="M 575.359375 21.914062 L 577.746094 21.914062 L 577.746094 24.386719 L 575.359375 24.386719 Z M 575.359375 21.914062 " fill-opacity="1" fill-rule="nonzero"/></g></g><g fill="#000000" fill-opacity="1"><g transform="translate(589.780695, 26.495282)"><g><path d="M 18.515625 -12.84375 C 19.910156 -12.84375 21.015625 -12.398438 21.828125 -11.515625 C 22.648438 -10.628906 23.0625 -9.453125 23.0625 -7.984375 L 23.0625 0 L 19.03125 0 L 19.03125 -6.859375 C 19.03125 -7.609375 18.832031 -8.195312 18.4375 -8.625 C 18.050781 -9.050781 17.519531 -9.265625 16.84375 -9.265625 C 16.09375 -9.253906 15.492188 -8.96875 15.046875 -8.40625 C 14.609375 -7.851562 14.390625 -7.140625 14.390625 -6.265625 L 14.390625 0 L 10.328125 0 L 10.328125 -6.859375 C 10.328125 -7.609375 10.132812 -8.195312 9.75 -8.625 C 9.363281 -9.050781 8.835938 -9.265625 8.171875 -9.265625 C 7.398438 -9.253906 6.785156 -8.96875 6.328125 -8.40625 C 5.878906 -7.84375 5.65625 -7.128906 5.65625 -6.265625 L 5.65625 0 L 1.625 0 L 1.625 -12.65625 L 5.65625 -12.65625 L 5.65625 -10.5625 C 6.519531 -12.050781 7.910156 -12.8125 9.828125 -12.84375 C 10.847656 -12.84375 11.726562 -12.585938 12.46875 -12.078125 C 13.21875 -11.566406 13.75 -10.863281 14.0625 -9.96875 C 14.882812 -11.851562 16.367188 -12.8125 18.515625 -12.84375 Z M 18.515625 -12.84375 "/></g></g></g><g fill="#000000" fill-opacity="1"><g transform="translate(612.772829, 26.495282)"><g><path d="M 7.296875 -12.84375 C 9.035156 -12.84375 10.382812 -12.4375 11.34375 -11.625 C 12.3125 -10.820312 12.800781 -9.703125 12.8125 -8.265625 L 12.8125 0 L 8.84375 0 L 8.84375 -1.453125 C 8.019531 -0.359375 6.726562 0.1875 4.96875 0.1875 C 3.644531 0.1875 2.59375 -0.175781 1.8125 -0.90625 C 1.03125 -1.644531 0.640625 -2.601562 0.640625 -3.78125 C 0.640625 -4.976562 1.054688 -5.910156 1.890625 -6.578125 C 2.722656 -7.242188 3.921875 -7.585938 5.484375 -7.609375 L 8.828125 -7.609375 L 8.828125 -7.796875 C 8.828125 -8.421875 8.617188 -8.90625 8.203125 -9.25 C 7.785156 -9.601562 7.171875 -9.78125 6.359375 -9.78125 C 5.210938 -9.78125 3.953125 -9.429688 2.578125 -8.734375 L 1.4375 -11.40625 C 3.476562 -12.363281 5.429688 -12.84375 7.296875 -12.84375 Z M 6.21875 -2.5625 C 6.863281 -2.5625 7.425781 -2.71875 7.90625 -3.03125 C 8.394531 -3.351562 8.703125 -3.773438 8.828125 -4.296875 L 8.828125 -5.421875 L 6.265625 -5.421875 C 5.046875 -5.421875 4.4375 -4.96875 4.4375 -4.0625 C 4.4375 -3.59375 4.59375 -3.222656 4.90625 -2.953125 C 5.21875 -2.691406 5.65625 -2.5625 6.21875 -2.5625 Z M 6.21875 -2.5625 "/></g></g></g><g fill="#000000" fill-opacity="1"><g transform="translate(625.51229, 26.495282)"><g><path d="M 7.15625 -4.875 L 5.796875 -3.453125 L 5.796875 0 L 1.734375 0 L 1.734375 -17.40625 L 5.796875 -17.40625 L 5.796875 -8.21875 L 9.96875 -12.65625 L 14.578125 -12.65625 L 9.921875 -7.796875 L 14.71875 0 L 9.90625 0 Z M 7.15625 -4.875 "/></g></g></g><g fill="#000000" fill-opacity="1"><g transform="translate(638.955594, 26.495282)"><g><path d="M 7.15625 -12.796875 C 9.34375 -12.796875 10.988281 -12.117188 12.09375 -10.765625 C 13.195312 -9.421875 13.679688 -7.578125 13.546875 -5.234375 L 4.640625 -5.234375 C 4.847656 -4.484375 5.207031 -3.90625 5.71875 -3.5 C 6.238281 -3.09375 6.875 -2.890625 7.625 -2.890625 C 8.78125 -2.890625 9.789062 -3.316406 10.65625 -4.171875 L 12.796875 -2.09375 C 11.429688 -0.601562 9.59375 0.140625 7.28125 0.140625 C 5.226562 0.140625 3.59375 -0.441406 2.375 -1.609375 C 1.164062 -2.785156 0.5625 -4.347656 0.5625 -6.296875 C 0.5625 -8.242188 1.164062 -9.8125 2.375 -11 C 3.59375 -12.195312 5.1875 -12.796875 7.15625 -12.796875 Z M 4.578125 -7.421875 L 9.640625 -7.421875 C 9.640625 -8.179688 9.414062 -8.796875 8.96875 -9.265625 C 8.53125 -9.734375 7.941406 -9.96875 7.203125 -9.96875 C 6.515625 -9.96875 5.9375 -9.738281 5.46875 -9.28125 C 5 -8.820312 4.703125 -8.203125 4.578125 -7.421875 Z M 4.578125 -7.421875 "/></g></g></g><g fill="#000000" fill-opacity="1"><g transform="translate(651.741981, 26.495282)"><g><path d="M 5.671875 -12.65625 L 5.671875 -10.515625 C 6.566406 -12.035156 7.9375 -12.8125 9.78125 -12.84375 L 9.78125 -9.171875 C 8.625 -9.285156 7.675781 -9.09375 6.9375 -8.59375 C 6.207031 -8.101562 5.785156 -7.40625 5.671875 -6.5 L 5.671875 0 L 1.625 0 L 1.625 -12.65625 Z M 5.671875 -12.65625 "/></g></g></g><g fill="#000000" fill-opacity="1"><g transform="translate(660.422604, 26.495282)"><g><path d="M 7.15625 -12.796875 C 9.34375 -12.796875 10.988281 -12.117188 12.09375 -10.765625 C 13.195312 -9.421875 13.679688 -7.578125 13.546875 -5.234375 L 4.640625 -5.234375 C 4.847656 -4.484375 5.207031 -3.90625 5.71875 -3.5 C 6.238281 -3.09375 6.875 -2.890625 7.625 -2.890625 C 8.78125 -2.890625 9.789062 -3.316406 10.65625 -4.171875 L 12.796875 -2.09375 C 11.429688 -0.601562 9.59375 0.140625 7.28125 0.140625 C 5.226562 0.140625 3.59375 -0.441406 2.375 -1.609375 C 1.164062 -2.785156 0.5625 -4.347656 0.5625 -6.296875 C 0.5625 -8.242188 1.164062 -9.8125 2.375 -11 C 3.59375 -12.195312 5.1875 -12.796875 7.15625 -12.796875 Z M 4.578125 -7.421875 L 9.640625 -7.421875 C 9.640625 -8.179688 9.414062 -8.796875 8.96875 -9.265625 C 8.53125 -9.734375 7.941406 -9.96875 7.203125 -9.96875 C 6.515625 -9.96875 5.9375 -9.738281 5.46875 -9.28125 C 5 -8.820312 4.703125 -8.203125 4.578125 -7.421875 Z M 4.578125 -7.421875 "/></g></g></g><g fill="#000000" fill-opacity="1"><g transform="translate(673.208992, 26.495282)"><g><path d="M 7.15625 -12.796875 C 9.34375 -12.796875 10.988281 -12.117188 12.09375 -10.765625 C 13.195312 -9.421875 13.679688 -7.578125 13.546875 -5.234375 L 4.640625 -5.234375 C 4.847656 -4.484375 5.207031 -3.90625 5.71875 -3.5 C 6.238281 -3.09375 6.875 -2.890625 7.625 -2.890625 C 8.78125 -2.890625 9.789062 -3.316406 10.65625 -4.171875 L 12.796875 -2.09375 C 11.429688 -0.601562 9.59375 0.140625 7.28125 0.140625 C 5.226562 0.140625 3.59375 -0.441406 2.375 -1.609375 C 1.164062 -2.785156 0.5625 -4.347656 0.5625 -6.296875 C 0.5625 -8.242188 1.164062 -9.8125 2.375 -11 C 3.59375 -12.195312 5.1875 -12.796875 7.15625 -12.796875 Z M 4.578125 -7.421875 L 9.640625 -7.421875 C 9.640625 -8.179688 9.414062 -8.796875 8.96875 -9.265625 C 8.53125 -9.734375 7.941406 -9.96875 7.203125 -9.96875 C 6.515625 -9.96875 5.9375 -9.738281 5.46875 -9.28125 C 5 -8.820312 4.703125 -8.203125 4.578125 -7.421875 Z M 4.578125 -7.421875 "/></g></g></g><g fill="#000000" fill-opacity="1"><g transform="translate(685.995379, 26.495282)"><g><path d="M 5.796875 0 L 1.734375 0 L 1.734375 -17.40625 L 5.796875 -17.40625 Z M 5.796875 0 "/></g></g></g><g fill="#000000" fill-opacity="1"><g transform="translate(692.189084, 26.495282)"><g><path d="M 6.15625 -12.84375 C 8.007812 -12.84375 9.742188 -12.363281 11.359375 -11.40625 L 9.96875 -8.78125 C 8.40625 -9.625 7.078125 -10.046875 5.984375 -10.046875 C 5.148438 -10.046875 4.734375 -9.753906 4.734375 -9.171875 C 4.734375 -8.859375 4.960938 -8.597656 5.421875 -8.390625 C 5.878906 -8.179688 6.4375 -7.988281 7.09375 -7.8125 C 7.75 -7.644531 8.398438 -7.429688 9.046875 -7.171875 C 9.691406 -6.910156 10.238281 -6.5 10.6875 -5.9375 C 11.144531 -5.375 11.375 -4.6875 11.375 -3.875 C 11.375 -2.601562 10.878906 -1.609375 9.890625 -0.890625 C 8.910156 -0.179688 7.632812 0.171875 6.0625 0.171875 C 3.820312 0.171875 1.925781 -0.425781 0.375 -1.625 L 1.671875 -4.203125 C 3.148438 -3.148438 4.644531 -2.625 6.15625 -2.625 C 7.070312 -2.625 7.53125 -2.914062 7.53125 -3.5 C 7.53125 -3.820312 7.304688 -4.09375 6.859375 -4.3125 C 6.421875 -4.53125 5.878906 -4.722656 5.234375 -4.890625 C 4.585938 -5.066406 3.941406 -5.285156 3.296875 -5.546875 C 2.660156 -5.804688 2.117188 -6.207031 1.671875 -6.75 C 1.234375 -7.300781 1.015625 -7.992188 1.015625 -8.828125 C 1.015625 -10.085938 1.488281 -11.070312 2.4375 -11.78125 C 3.394531 -12.488281 4.632812 -12.84375 6.15625 -12.84375 Z M 6.15625 -12.84375 "/></g></g></g><g fill="#000000" fill-opacity="1"><g transform="translate(702.887396, 26.495282)"><g><path d="M 1.421875 -3.1875 C 1.785156 -3.550781 2.253906 -3.734375 2.828125 -3.734375 C 3.410156 -3.734375 3.882812 -3.550781 4.25 -3.1875 C 4.625 -2.832031 4.8125 -2.363281 4.8125 -1.78125 C 4.8125 -1.207031 4.625 -0.734375 4.25 -0.359375 C 3.882812 0.00390625 3.410156 0.1875 2.828125 0.1875 C 2.253906 0.1875 1.785156 0.00390625 1.421875 -0.359375 C 1.066406 -0.734375 0.890625 -1.207031 0.890625 -1.78125 C 0.890625 -2.363281 1.066406 -2.832031 1.421875 -3.1875 Z M 1.421875 -3.1875 "/></g></g></g><g fill="#000000" fill-opacity="1"><g transform="translate(707.251096, 26.495282)"><g><path d="M 7.296875 -12.84375 C 9.035156 -12.84375 10.382812 -12.4375 11.34375 -11.625 C 12.3125 -10.820312 12.800781 -9.703125 12.8125 -8.265625 L 12.8125 0 L 8.84375 0 L 8.84375 -1.453125 C 8.019531 -0.359375 6.726562 0.1875 4.96875 0.1875 C 3.644531 0.1875 2.59375 -0.175781 1.8125 -0.90625 C 1.03125 -1.644531 0.640625 -2.601562 0.640625 -3.78125 C 0.640625 -4.976562 1.054688 -5.910156 1.890625 -6.578125 C 2.722656 -7.242188 3.921875 -7.585938 5.484375 -7.609375 L 8.828125 -7.609375 L 8.828125 -7.796875 C 8.828125 -8.421875 8.617188 -8.90625 8.203125 -9.25 C 7.785156 -9.601562 7.171875 -9.78125 6.359375 -9.78125 C 5.210938 -9.78125 3.953125 -9.429688 2.578125 -8.734375 L 1.4375 -11.40625 C 3.476562 -12.363281 5.429688 -12.84375 7.296875 -12.84375 Z M 6.21875 -2.5625 C 6.863281 -2.5625 7.425781 -2.71875 7.90625 -3.03125 C 8.394531 -3.351562 8.703125 -3.773438 8.828125 -4.296875 L 8.828125 -5.421875 L 6.265625 -5.421875 C 5.046875 -5.421875 4.4375 -4.96875 4.4375 -4.0625 C 4.4375 -3.59375 4.59375 -3.222656 4.90625 -2.953125 C 5.21875 -2.691406 5.65625 -2.5625 6.21875 -2.5625 Z M 6.21875 -2.5625 "/></g></g></g><g fill="#000000" fill-opacity="1"><g transform="translate(719.990553, 26.495282)"><g><path d="M 2.125 -17.8125 C 2.519531 -18.21875 3.03125 -18.421875 3.65625 -18.421875 C 4.28125 -18.421875 4.789062 -18.21875 5.1875 -17.8125 C 5.59375 -17.414062 5.796875 -16.90625 5.796875 -16.28125 C 5.796875 -15.65625 5.59375 -15.140625 5.1875 -14.734375 C 4.789062 -14.328125 4.28125 -14.125 3.65625 -14.125 C 3.03125 -14.125 2.519531 -14.328125 2.125 -14.734375 C 1.726562 -15.140625 1.53125 -15.65625 1.53125 -16.28125 C 1.53125 -16.90625 1.726562 -17.414062 2.125 -17.8125 Z M 5.65625 0 L 1.625 0 L 1.625 -12.65625 L 5.65625 -12.65625 Z M 5.65625 0 "/></g></g></g><g fill="#000000" fill-opacity="1"><g transform="translate(671.836664, 55.555727)"><g><path d="M 6.703125 -8.234375 L 6.703125 -2.59375 C 6.703125 -2.1875 6.617188 -1.8125 6.453125 -1.46875 C 6.296875 -1.132812 6.070312 -0.847656 5.78125 -0.609375 C 5.488281 -0.378906 5.144531 -0.195312 4.75 -0.0625 C 4.351562 0.0703125 3.921875 0.140625 3.453125 0.140625 C 3.003906 0.140625 2.585938 0.0664062 2.203125 -0.078125 C 1.828125 -0.234375 1.492188 -0.445312 1.203125 -0.71875 C 0.921875 -0.988281 0.703125 -1.304688 0.546875 -1.671875 C 0.390625 -2.035156 0.3125 -2.4375 0.3125 -2.875 C 0.3125 -3.320312 0.390625 -3.726562 0.546875 -4.09375 C 0.710938 -4.46875 0.9375 -4.785156 1.21875 -5.046875 C 1.5 -5.304688 1.820312 -5.503906 2.1875 -5.640625 C 2.5625 -5.785156 2.957031 -5.859375 3.375 -5.859375 C 3.582031 -5.859375 3.757812 -5.84375 3.90625 -5.8125 C 4.0625 -5.789062 4.1875 -5.757812 4.28125 -5.71875 L 4.28125 -3.984375 C 4.238281 -4.015625 4.148438 -4.046875 4.015625 -4.078125 C 3.890625 -4.117188 3.71875 -4.140625 3.5 -4.140625 C 3.3125 -4.140625 3.132812 -4.109375 2.96875 -4.046875 C 2.8125 -3.984375 2.675781 -3.894531 2.5625 -3.78125 C 2.457031 -3.664062 2.367188 -3.53125 2.296875 -3.375 C 2.234375 -3.21875 2.203125 -3.046875 2.203125 -2.859375 C 2.203125 -2.484375 2.320312 -2.175781 2.5625 -1.9375 C 2.800781 -1.695312 3.113281 -1.578125 3.5 -1.578125 C 3.71875 -1.578125 3.910156 -1.613281 4.078125 -1.6875 C 4.242188 -1.769531 4.378906 -1.878906 4.484375 -2.015625 C 4.597656 -2.148438 4.679688 -2.304688 4.734375 -2.484375 C 4.796875 -2.660156 4.828125 -2.851562 4.828125 -3.0625 L 4.828125 -8.234375 Z M 6.703125 -8.234375 "/></g></g></g><g fill="#000000" fill-opacity="1"><g transform="translate(679.018346, 55.555727)"><g><path d="M 6.703125 -8.234375 L 6.703125 -2.59375 C 6.703125 -2.1875 6.617188 -1.8125 6.453125 -1.46875 C 6.296875 -1.132812 6.070312 -0.847656 5.78125 -0.609375 C 5.488281 -0.378906 5.144531 -0.195312 4.75 -0.0625 C 4.351562 0.0703125 3.921875 0.140625 3.453125 0.140625 C 3.003906 0.140625 2.585938 0.0664062 2.203125 -0.078125 C 1.828125 -0.234375 1.492188 -0.445312 1.203125 -0.71875 C 0.921875 -0.988281 0.703125 -1.304688 0.546875 -1.671875 C 0.390625 -2.035156 0.3125 -2.4375 0.3125 -2.875 C 0.3125 -3.320312 0.390625 -3.726562 0.546875 -4.09375 C 0.710938 -4.46875 0.9375 -4.785156 1.21875 -5.046875 C 1.5 -5.304688 1.820312 -5.503906 2.1875 -5.640625 C 2.5625 -5.785156 2.957031 -5.859375 3.375 -5.859375 C 3.582031 -5.859375 3.757812 -5.84375 3.90625 -5.8125 C 4.0625 -5.789062 4.1875 -5.757812 4.28125 -5.71875 L 4.28125 -3.984375 C 4.238281 -4.015625 4.148438 -4.046875 4.015625 -4.078125 C 3.890625 -4.117188 3.71875 -4.140625 3.5 -4.140625 C 3.3125 -4.140625 3.132812 -4.109375 2.96875 -4.046875 C 2.8125 -3.984375 2.675781 -3.894531 2.5625 -3.78125 C 2.457031 -3.664062 2.367188 -3.53125 2.296875 -3.375 C 2.234375 -3.21875 2.203125 -3.046875 2.203125 -2.859375 C 2.203125 -2.484375 2.320312 -2.175781 2.5625 -1.9375 C 2.800781 -1.695312 3.113281 -1.578125 3.5 -1.578125 C 3.71875 -1.578125 3.910156 -1.613281 4.078125 -1.6875 C 4.242188 -1.769531 4.378906 -1.878906 4.484375 -2.015625 C 4.597656 -2.148438 4.679688 -2.304688 4.734375 -2.484375 C 4.796875 -2.660156 4.828125 -2.851562 4.828125 -3.0625 L 4.828125 -8.234375 Z M 6.703125 -8.234375 "/></g></g></g><g fill="#000000" fill-opacity="1"><g transform="translate(686.200028, 55.555727)"><g><path d="M 3.203125 -2.078125 L 2.484375 -3.21875 L 4.03125 -4.21875 C 3.894531 -4.300781 3.765625 -4.351562 3.640625 -4.375 C 3.523438 -4.40625 3.410156 -4.421875 3.296875 -4.421875 C 3.117188 -4.421875 2.957031 -4.378906 2.8125 -4.296875 C 2.664062 -4.210938 2.535156 -4.101562 2.421875 -3.96875 C 2.316406 -3.832031 2.234375 -3.675781 2.171875 -3.5 C 2.117188 -3.320312 2.09375 -3.140625 2.09375 -2.953125 C 2.09375 -2.742188 2.128906 -2.550781 2.203125 -2.375 C 2.273438 -2.207031 2.367188 -2.054688 2.484375 -1.921875 C 2.597656 -1.796875 2.734375 -1.691406 2.890625 -1.609375 C 3.046875 -1.535156 3.203125 -1.5 3.359375 -1.5 C 3.691406 -1.5 4.015625 -1.617188 4.328125 -1.859375 C 4.640625 -2.097656 4.878906 -2.40625 5.046875 -2.78125 L 6.40625 -2.09375 C 6.257812 -1.757812 6.078125 -1.453125 5.859375 -1.171875 C 5.640625 -0.898438 5.390625 -0.664062 5.109375 -0.46875 C 4.835938 -0.269531 4.539062 -0.117188 4.21875 -0.015625 C 3.90625 0.0859375 3.578125 0.140625 3.234375 0.140625 C 2.835938 0.140625 2.457031 0.0625 2.09375 -0.09375 C 1.738281 -0.257812 1.425781 -0.476562 1.15625 -0.75 C 0.882812 -1.03125 0.671875 -1.351562 0.515625 -1.71875 C 0.359375 -2.082031 0.28125 -2.460938 0.28125 -2.859375 C 0.28125 -3.253906 0.359375 -3.632812 0.515625 -4 C 0.671875 -4.363281 0.882812 -4.679688 1.15625 -4.953125 C 1.425781 -5.222656 1.738281 -5.441406 2.09375 -5.609375 C 2.457031 -5.773438 2.835938 -5.859375 3.234375 -5.859375 C 3.890625 -5.859375 4.441406 -5.691406 4.890625 -5.359375 C 5.347656 -5.035156 5.726562 -4.59375 6.03125 -4.03125 Z M 3.203125 -2.078125 "/></g></g></g><g fill="#000000" fill-opacity="1"><g transform="translate(692.735233, 55.555727)"><g><path d="M 1.828125 -5.71875 L 2.609375 -1.953125 L 2.640625 -1.953125 L 3.390625 -5.71875 L 5.3125 -5.71875 L 4.03125 -1.40625 C 3.957031 -1.15625 3.878906 -0.941406 3.796875 -0.765625 C 3.722656 -0.585938 3.640625 -0.4375 3.546875 -0.3125 C 3.398438 -0.125 3.25 -0.00390625 3.09375 0.046875 C 2.9375 0.109375 2.773438 0.140625 2.609375 0.140625 C 2.453125 0.140625 2.296875 0.117188 2.140625 0.078125 C 1.992188 0.046875 1.851562 -0.0234375 1.71875 -0.140625 C 1.59375 -0.253906 1.476562 -0.40625 1.375 -0.59375 C 1.28125 -0.78125 1.191406 -1.035156 1.109375 -1.359375 L -0.078125 -5.71875 Z M 1.828125 -5.71875 "/></g></g></g><g fill="#000000" fill-opacity="1"><g transform="translate(697.954002, 55.555727)"><g><path d="M 2.703125 -7.3125 C 2.703125 -7 2.597656 -6.738281 2.390625 -6.53125 C 2.179688 -6.332031 1.929688 -6.234375 1.640625 -6.234375 C 1.335938 -6.234375 1.082031 -6.332031 0.875 -6.53125 C 0.664062 -6.738281 0.5625 -7 0.5625 -7.3125 C 0.5625 -7.613281 0.664062 -7.863281 0.875 -8.0625 C 1.082031 -8.269531 1.335938 -8.375 1.640625 -8.375 C 1.929688 -8.375 2.179688 -8.269531 2.390625 -8.0625 C 2.597656 -7.863281 2.703125 -7.613281 2.703125 -7.3125 Z M 2.578125 -5.71875 L 2.578125 0 L 0.6875 0 L 0.6875 -5.71875 Z M 2.578125 -5.71875 "/></g></g></g><g fill="#000000" fill-opacity="1"><g transform="translate(701.221611, 55.555727)"><g><path d="M 2.828125 -1.0625 C 2.828125 -0.90625 2.796875 -0.753906 2.734375 -0.609375 C 2.679688 -0.472656 2.601562 -0.347656 2.5 -0.234375 C 2.394531 -0.117188 2.269531 -0.03125 2.125 0.03125 C 1.976562 0.101562 1.816406 0.140625 1.640625 0.140625 C 1.460938 0.140625 1.296875 0.101562 1.140625 0.03125 C 0.992188 -0.03125 0.867188 -0.113281 0.765625 -0.21875 C 0.660156 -0.332031 0.578125 -0.460938 0.515625 -0.609375 C 0.460938 -0.753906 0.4375 -0.90625 0.4375 -1.0625 C 0.4375 -1.226562 0.46875 -1.378906 0.53125 -1.515625 C 0.59375 -1.660156 0.675781 -1.789062 0.78125 -1.90625 C 0.882812 -2.019531 1.007812 -2.109375 1.15625 -2.171875 C 1.300781 -2.234375 1.460938 -2.265625 1.640625 -2.265625 C 1.804688 -2.265625 1.960938 -2.226562 2.109375 -2.15625 C 2.265625 -2.09375 2.394531 -2.003906 2.5 -1.890625 C 2.601562 -1.785156 2.679688 -1.660156 2.734375 -1.515625 C 2.796875 -1.367188 2.828125 -1.21875 2.828125 -1.0625 Z M 2.828125 -1.0625 "/></g></g></g><g fill="#000000" fill-opacity="1"><g transform="translate(704.489219, 55.555727)"><g><path d="M 4.125 -5.71875 L 4.125 -4.015625 L 3.28125 -4.015625 C 2.914062 -4.015625 2.628906 -3.910156 2.421875 -3.703125 C 2.222656 -3.503906 2.125 -3.222656 2.125 -2.859375 C 2.125 -2.492188 2.222656 -2.207031 2.421875 -2 C 2.628906 -1.789062 2.914062 -1.6875 3.28125 -1.6875 L 4.125 -1.6875 L 4.125 0 L 2.953125 0 C 2.597656 0 2.253906 -0.0664062 1.921875 -0.203125 C 1.597656 -0.335938 1.3125 -0.53125 1.0625 -0.78125 C 0.8125 -1.039062 0.613281 -1.34375 0.46875 -1.6875 C 0.320312 -2.039062 0.25 -2.429688 0.25 -2.859375 C 0.25 -3.285156 0.320312 -3.675781 0.46875 -4.03125 C 0.625 -4.382812 0.828125 -4.6875 1.078125 -4.9375 C 1.328125 -5.1875 1.613281 -5.378906 1.9375 -5.515625 C 2.269531 -5.648438 2.609375 -5.71875 2.953125 -5.71875 Z M 4.125 -5.71875 "/></g></g></g><g fill="#000000" fill-opacity="1"><g transform="translate(709.061511, 55.555727)"><g><path d="M 6.21875 -2.859375 C 6.21875 -2.460938 6.140625 -2.082031 5.984375 -1.71875 C 5.828125 -1.351562 5.613281 -1.03125 5.34375 -0.75 C 5.070312 -0.476562 4.757812 -0.257812 4.40625 -0.09375 C 4.050781 0.0625 3.671875 0.140625 3.265625 0.140625 C 2.867188 0.140625 2.488281 0.0625 2.125 -0.09375 C 1.769531 -0.257812 1.457031 -0.476562 1.1875 -0.75 C 0.914062 -1.03125 0.703125 -1.351562 0.546875 -1.71875 C 0.390625 -2.082031 0.3125 -2.460938 0.3125 -2.859375 C 0.3125 -3.253906 0.390625 -3.632812 0.546875 -4 C 0.703125 -4.363281 0.914062 -4.679688 1.1875 -4.953125 C 1.457031 -5.222656 1.769531 -5.441406 2.125 -5.609375 C 2.488281 -5.773438 2.867188 -5.859375 3.265625 -5.859375 C 3.671875 -5.859375 4.050781 -5.773438 4.40625 -5.609375 C 4.769531 -5.441406 5.082031 -5.21875 5.34375 -4.9375 C 5.613281 -4.664062 5.828125 -4.347656 5.984375 -3.984375 C 6.140625 -3.628906 6.21875 -3.253906 6.21875 -2.859375 Z M 3.265625 -1.640625 C 3.429688 -1.640625 3.582031 -1.671875 3.71875 -1.734375 C 3.863281 -1.804688 3.988281 -1.898438 4.09375 -2.015625 C 4.195312 -2.128906 4.273438 -2.257812 4.328125 -2.40625 C 4.378906 -2.550781 4.40625 -2.703125 4.40625 -2.859375 C 4.40625 -3.015625 4.378906 -3.164062 4.328125 -3.3125 C 4.273438 -3.457031 4.195312 -3.585938 4.09375 -3.703125 C 4 -3.816406 3.878906 -3.90625 3.734375 -3.96875 C 3.585938 -4.039062 3.429688 -4.078125 3.265625 -4.078125 C 3.097656 -4.078125 2.941406 -4.039062 2.796875 -3.96875 C 2.660156 -3.90625 2.539062 -3.816406 2.4375 -3.703125 C 2.34375 -3.585938 2.265625 -3.457031 2.203125 -3.3125 C 2.148438 -3.164062 2.125 -3.015625 2.125 -2.859375 C 2.125 -2.703125 2.148438 -2.550781 2.203125 -2.40625 C 2.265625 -2.257812 2.34375 -2.128906 2.4375 -2.015625 C 2.539062 -1.898438 2.664062 -1.804688 2.8125 -1.734375 C 2.957031 -1.671875 3.109375 -1.640625 3.265625 -1.640625 Z M 3.265625 -1.640625 "/></g></g></g><g fill="#000000" fill-opacity="1"><g transform="translate(715.596716, 55.555727)"><g><path d="M 4.578125 -5.0625 C 4.773438 -5.289062 5.019531 -5.476562 5.3125 -5.625 C 5.601562 -5.78125 5.898438 -5.859375 6.203125 -5.859375 C 6.535156 -5.859375 6.847656 -5.800781 7.140625 -5.6875 C 7.441406 -5.570312 7.695312 -5.414062 7.90625 -5.21875 C 8.125 -5.03125 8.289062 -4.804688 8.40625 -4.546875 C 8.53125 -4.296875 8.59375 -4.023438 8.59375 -3.734375 L 8.59375 0 L 6.71875 0 L 6.71875 -3.40625 C 6.71875 -3.570312 6.671875 -3.71875 6.578125 -3.84375 C 6.492188 -3.976562 6.34375 -4.046875 6.125 -4.046875 C 5.894531 -4.046875 5.734375 -3.976562 5.640625 -3.84375 C 5.554688 -3.71875 5.515625 -3.570312 5.515625 -3.40625 L 5.515625 0 L 3.640625 0 L 3.640625 -3.40625 C 3.640625 -3.570312 3.59375 -3.71875 3.5 -3.84375 C 3.414062 -3.976562 3.257812 -4.046875 3.03125 -4.046875 C 2.800781 -4.046875 2.644531 -3.976562 2.5625 -3.84375 C 2.476562 -3.71875 2.4375 -3.570312 2.4375 -3.40625 L 2.4375 0 L 0.546875 0 L 0.546875 -3.734375 C 0.546875 -4.023438 0.609375 -4.296875 0.734375 -4.546875 C 0.859375 -4.804688 1.023438 -5.03125 1.234375 -5.21875 C 1.441406 -5.414062 1.691406 -5.570312 1.984375 -5.6875 C 2.285156 -5.800781 2.609375 -5.859375 2.953125 -5.859375 C 3.253906 -5.859375 3.546875 -5.78125 3.828125 -5.625 C 4.117188 -5.476562 4.367188 -5.289062 4.578125 -5.0625 Z M 4.578125 -5.0625 "/></g></g></g></svg>